PathFileType	4	(X/Y/Z)	Patient4_TMGait_0pt4_01_right_31.trc.trc
DataRate	CameraRate	NumFrames	NumMarkers	Units	OrigDataRate	OrigDataStartFrame	OrigNumFrames
72.164948453608	72.164948453608	6	33	mm	72.164948453608	71	       141
Frame#	Time	Sacral			L.Shoulder			Chest			R.Shoulder			Neck			R.ASIS			L.ASIS			R.Thigh.Superior			R.Thigh.Lateral			R.Thigh.Inferior			R.Patella			L.Thigh.Superior			L.Thigh.Lateral			L.Thigh.Inferior			L.Patella			L.Shank.Superior			L.Shank.Lateral			L.Shank.Inferior			R.Shank.Superior			R.Shank.Lateral			R.Shank.Inferior			R.Heel			R.Midfoot.Superior			R.Midfoot.Lateral			R.Toe			L.Heel			L.Midfoot.Lateral			L.Midfoot.Superior			L.Toe			L.Elbow			L.Wrist			R.Elbow			R.Wrist			
		X1	Y1	Z1	X2	Y2	Z2	X3	Y3	Z3	X4	Y4	Z4	X5	Y5	Z5	X6	Y6	Z6	X7	Y7	Z7	X8	Y8	Z8	X9	Y9	Z9	X10	Y10	Z10	X11	Y11	Z11	X12	Y12	Z12	X13	Y13	Z13	X14	Y14	Z14	X15	Y15	Z15	X16	Y16	Z16	X17	Y17	Z17	X18	Y18	Z18	X19	Y19	Z19	X20	Y20	Z20	X21	Y21	Z21	X22	Y22	Z22	X23	Y23	Z23	X24	Y24	Z24	X25	Y25	Z25	X26	Y26	Z26	X27	Y27	Z27	X28	Y28	Z28	X29	Y29	Z29	X30	Y30	Z30	X31	Y31	Z31	X32	Y32	Z32	X33	Y33	Z33	

71	41.070000000000	871.750717682196	1007.322447960529	549.517166575971	1040.818564829151	1428.664085300522	346.502871326768	1159.684606819331	1358.825424522175	495.098917297731	1099.862552987524	1437.447695879701	676.583548923116	1056.508973580537	1492.440471827871	500.659559844380	1107.595746529253	937.205908541820	643.845058133470	1068.557930536293	957.815400576312	371.404969004156	1116.457747379204	728.506463613932	613.433321643390	1023.272149399393	628.802242181551	679.347033974897	1085.472269444530	567.553673375484	595.596250132970	1071.367675519039	481.433532410740	601.002165171476	1139.859628684587	764.322916161459	397.158873269906	1077.325566926078	639.455300626352	325.839336944327	1180.051883628841	577.438801276053	383.700163194803	1196.095880387994	509.038097504673	384.356767019708	1176.381311419126	437.037497215007	372.046154140736	1100.007473799130	314.413947759026	317.812315737807	1176.314712060873	207.088215885373	373.230059354791	1033.944230632370	395.840660422077	608.420727982616	953.932953379291	301.036083787773	674.692497819966	980.235062878742	202.807834215668	607.116063089210	829.816217768571	44.482607615025	582.345725197324	1003.133895666928	96.607271394374	611.288989173711	915.831236268819	37.079939071666	653.455408960740	1123.756375405377	40.829094407766	634.065388839513	1074.153915774629	40.365676977087	407.649605314173	1148.309560746443	39.174542748987	327.717732232815	1228.210836114201	104.954495390647	352.305073582826	1357.612813400842	59.843004640008	324.693875280798	948.584317796865	1088.343603917937	233.101596774383	1012.082891292396	835.128466808857	195.581033905015	1122.286994921438	1101.684169763792	820.550154869612	1312.149707685821	930.468725726754	781.405680569893	
72	41.083857142857	871.896568631328	1006.323543881782	545.995950993042	1040.045360302421	1427.870751589929	343.153105080700	1158.476259381435	1358.903218975795	492.508758482605	1097.166950281752	1437.317396543984	673.597558557809	1054.454885604391	1491.985741444052	497.335919642600	1107.481465061693	936.858522478880	641.683337659544	1069.738965306471	957.062250423468	369.218058288595	1116.018439394112	727.750677424162	611.860216264413	1021.814452430915	628.437990150746	677.436148454087	1084.057243458692	566.692595636251	594.190381288595	1069.347392238136	480.317300661036	599.537601448774	1140.291136777830	762.177133051090	396.169018093601	1076.987183681766	637.977216872004	325.018114939333	1178.661457841613	575.184395664935	383.982509305739	1193.648062785931	506.221575142376	384.922527580709	1173.329275767413	434.193092376899	372.506062915605	1095.621828170180	312.377953837587	318.265572461159	1169.870838321414	204.235023140317	374.727954235895	1031.137424274028	395.095043852978	607.208323456545	950.209915453639	301.179223230893	673.728745504173	975.655686575002	202.506245073771	606.563929442111	824.271082239128	44.693380419850	582.314972605509	997.598246610512	96.642472222249	611.150120343315	910.266648904028	37.195667734205	653.424463020678	1118.186061125113	40.759888856298	634.135067780086	1064.897724560122	39.172795059517	408.682094135394	1139.400798494029	37.634378747545	328.989677014557	1220.036852332097	101.988934656680	354.642519644378	1349.227612187550	55.289587953805	327.305006754922	947.842279518643	1087.663657657635	229.659549351846	1010.750188047240	834.365918571462	192.104762037703	1117.407317479920	1101.498233702305	817.893742592312	1306.432229740903	929.049838377408	779.798252027130	
73	41.097714285714	871.977286057422	1005.520380428383	542.459384474524	1039.390469187348	1427.161700616225	339.668985581790	1157.389250702525	1359.045057500337	489.766867579145	1094.708972467799	1437.375235830473	670.445873711917	1052.563797872482	1491.663650675251	493.819038513041	1107.377419645175	936.610656363950	639.329025214516	1070.727359202846	956.601227545848	366.862495726916	1115.708222921565	727.127003346188	609.968173118341	1020.669793533124	628.151512882869	675.328482928255	1082.963795322009	565.940455374262	592.552606198952	1067.766183193119	479.203646027776	597.937700377045	1140.724504279776	760.526366192031	395.086469750964	1076.973378170985	637.048373407182	323.868544205530	1177.430063320139	573.483937084687	384.130378360991	1191.490736789166	504.043812228865	385.215460495769	1170.714322204018	431.948880095828	372.624663103661	1092.040983343282	310.834504143103	318.204195651790	1164.277589198819	202.043464034089	375.776411094560	1028.646767997710	394.425447945944	605.882154263823	946.714321254883	301.485317905305	672.661068062304	971.228732684517	202.321245068941	605.967229009814	818.759920041689	45.128077711207	582.284865707114	992.143313624823	96.711306147825	610.990053381888	904.748330588964	37.410411742512	653.377953985076	1112.663273728464	40.647884895132	634.207430663277	1056.820358439347	38.366593843008	409.282680841117	1131.650106714894	36.628886322871	329.819728916817	1212.806179172288	99.841700739047	356.439812421340	1341.871547663759	51.934160506385	329.373820483308	947.536540601221	1087.005013021616	226.024849016073	1009.880713777780	833.619084736314	188.468749809243	1112.109863780662	1101.501367043766	815.108286576614	1299.896766807105	927.295605787037	778.561243726504	
74	41.111571428571	871.969507521701	1004.953020661003	538.911164102553	1038.825628374331	1426.598891266476	336.090607844860	1156.418368115707	1359.272267055588	486.878141891142	1092.535790791540	1437.643371878701	667.154360489138	1050.845543127889	1491.509129330610	490.157259654852	1107.251524225468	936.510648438443	636.757049760127	1071.485142857377	956.445970018129	364.286065265322	1115.475534593518	726.685276264789	607.761178219667	1019.832493255807	627.974983365168	673.051797765546	1082.210766416251	565.338182114714	590.722510325008	1066.685647191303	478.114099775770	596.288164715696	1141.169686003000	759.485303945511	393.807304216347	1077.273026857109	636.650311789316	322.402960763836	1176.425872236124	572.364297754093	384.008145326336	1189.663985682112	502.507841054716	385.179680939190	1168.553829035790	430.293231128044	372.411975769061	1089.222569878576	309.787454942301	317.662441383898	1159.465647170231	200.484397381118	376.402553829192	1026.502598686538	393.855229162491	604.497430534849	943.459863416282	301.992774308689	671.521421946963	966.985567497624	202.291160767160	605.364634931281	813.291886312876	45.854772228381	582.266310620049	986.804414384073	96.823999444969	610.837534142818	899.286550385711	37.749700091166	653.325511560008	1107.195501077588	40.491400331718	634.279960349662	1049.821270972027	37.909980045560	409.531536359050	1124.922518395461	36.086065873392	330.261308400625	1206.416635008420	98.449846875234	357.687722560088	1335.420898525116	49.681778582078	330.839094358479	947.663365208468	1086.427694039322	222.225918526281	1009.493726256373	832.948566974944	184.706762793168	1106.431957463344	1101.725967054052	812.191273367618	1292.530009658711	925.226111212477	777.697113455961	
75	41.125428571429	871.860094162711	1004.637528439508	535.331311632934	1038.317448536460	1426.233334411252	332.451543124658	1155.547850161844	1359.602866726831	483.849929963181	1090.656781519356	1438.124130181858	663.749182395487	1049.290104457303	1491.542644003153	486.399510165689	1107.074007884626	936.594490973392	633.949511772976	1072.012340464971	956.578271895325	361.444962556018	1115.283322884241	726.462867657263	605.274522543382	1019.295074004869	627.930475073773	670.643915738602	1081.823788690315	564.916833377656	588.754133466366	1066.167601265543	477.062984539289	594.685246960592	1141.634032842566	759.079102104353	392.229050922790	1077.795964458697	636.694296911071	320.659520907329	1175.643710661664	571.755803700170	383.497512972561	1188.130876153415	501.533886745280	384.796127047441	1166.777928623080	429.148276634645	371.912827912694	1087.016296135982	309.178256804239	316.731633425704	1155.276228838617	199.466659283361	376.678748640529	1024.743130908100	393.399371554865	603.117149310695	940.465884937672	302.732564959120	670.345749929231	962.962729018572	202.447475063682	604.798618772145	807.879218877310	46.942668147805	582.272892120678	981.619331962218	96.988292134848	610.727085952368	893.890292230618	38.239333150407	653.280479207129	1101.784507843659	40.293011259244	634.349060966292	1043.697070648987	37.734426626189	409.521916878813	1118.998270305920	35.900774991490	330.395078851920	1200.689637880327	97.685773643231	358.441780599226	1329.676987511702	48.346237074384	331.728939522036	948.189482790529	1085.985749527683	218.288112993274	1009.612005176444	832.417197508647	180.851964660991	1100.418250252027	1102.190912465543	809.147421143295	1284.330885067210	922.866204907910	777.196621152446	
76	41.139285714286	871.643090603878	1004.567181571081	531.680830063301	1037.833903263377	1426.099358681846	328.773642049739	1154.752791533613	1360.051722343849	480.692321892101	1089.038762546555	1438.800464100650	660.253562232722	1047.869278614664	1491.768828847911	482.587335996375	1106.820490535701	936.883329376881	630.902049486107	1072.343993024031	956.953990660914	358.317437000020	1115.121181484496	726.481160832385	602.568363956208	1019.061483347295	628.025618810291	668.146083626408	1081.844440190671	564.694293679378	586.704558790371	1066.278961158445	476.056110947735	593.217562307754	1142.116486376098	759.237538965811	390.262153676997	1078.369955025513	637.037617197364	318.696315863112	1175.001806512005	571.518915093328	382.517765604202	1186.786046248038	500.990272327156	384.083429157812	1165.247399568121	428.396329505291	371.190826424141	1085.200023793354	308.905275589265	315.538162928810	1151.505608346526	198.864291543284	376.700462172501	1023.422026474881	393.063741990266	601.801625961065	937.767063939441	303.728187889619	669.168985239248	959.205822732554	202.814606214415	604.309928004720	802.540326089999	48.463438171016	582.320192811524	976.627244674578	97.208706712387	610.693978230012	888.568305594806	38.907656861559	653.258212988050	1096.425419418431	40.057888202376	634.410378183310	1038.198937278916	37.756884405950	409.347146708524	1113.627067707211	35.957514236040	330.312667582361	1195.417283981691	97.389582903738	358.800225247708	1324.415263448529	47.697339233772	332.134730388661	949.056749881808	1085.720918042545	214.230752428877	1010.259052838444	832.082515986435	176.935734739852	1094.119105981414	1102.899275537457	805.987303749269	1275.312006537577	920.244550664023	777.039352252464	
